<?xml version="1.0" encoding="utf-8"?>
<!-- Generator: Adobe Illustrator 24.3.0, SVG Export Plug-In . SVG Version: 6.00 Build 0)  -->
<svg version="1.1" id="Layer_1" xmlns="http://www.w3.org/2000/svg" xmlns:xlink="http://www.w3.org/1999/xlink" x="0px" y="0px"
	 viewBox="0 0 39.92 48.02" style="enable-background:new 0 0 39.92 48.02;" xml:space="preserve">
<style type="text/css">
	.st0{fill:#1C383D;}
	.st1{fill:#9E6B3D;}
	.st2{fill:#9D9CA2;}
</style>
<g id="coffee-cup-2_1_">
	<path class="st0" d="M34.98,43.32H2.81C1.26,43.32,0,44.37,0,45.67s1.26,2.35,2.81,2.35h32.17c1.55,0,2.81-1.05,2.81-2.35
		C37.79,44.37,36.53,43.32,34.98,43.32L34.98,43.32z"/>
	<path class="st1" d="M34.25,25.57c-0.75,0-1.47,0.16-2.13,0.42c0.11-0.68-0.05-1.38-0.48-1.93c-0.48-0.62-1.22-0.99-2-0.99H5.61
		c-0.78,0-1.51,0.36-1.99,0.98c-0.48,0.61-0.65,1.42-0.45,2.17l3.11,12.2c0.29,1.12,1.29,1.9,2.45,1.9h17.7
		c1.14,0,2.15-0.77,2.44-1.88l0.98-3.7c1.04,1.3,2.62,2.16,4.41,2.16c3.12,0,5.66-2.54,5.66-5.66
		C39.91,28.11,37.37,25.57,34.25,25.57L34.25,25.57z M34.25,34.37c-1.73,0-3.14-1.41-3.14-3.14c0-1.73,1.41-3.14,3.14-3.14
		s3.14,1.41,3.14,3.14C37.39,32.97,35.98,34.37,34.25,34.37L34.25,34.37z"/>
	<path class="st2" d="M18.2,13.1c-3.5,4.79,1.56,8.09,1.56,8.09c-2.73-1.94-0.77-5.47,0.2-6.9c1.13-1.67,2.42-3.57,2.52-6.21
		c0.14-3.37-3.16-4.53-3.16-4.53c0.44,0.26,1.17,1.18,1.04,4.44C20.29,9.89,19.52,11.3,18.2,13.1L18.2,13.1z M14.88,21.19
		c-3.27-2.33-0.92-6.57,0.24-8.29c1.36-2.01,2.91-4.29,3.03-7.46C18.31,1.39,14.36,0,14.36,0c0.53,0.31,1.4,1.42,1.25,5.33
		c-0.09,2.27-1.01,3.96-2.6,6.13C8.81,17.23,14.88,21.19,14.88,21.19L14.88,21.19z M22.52,14.98c-2.69,3.68,1.19,6.21,1.19,6.21
		c-2.09-1.49-0.59-4.2,0.16-5.29c0.87-1.29,1.86-2.74,1.93-4.77c0.1-2.59-2.42-3.47-2.42-3.47c0.34,0.2,0.9,0.91,0.79,3.41
		C24.12,12.52,23.53,13.6,22.52,14.98L22.52,14.98z"/>
</g>
</svg>
