<?xml version="1.0" encoding="utf-8"?>
<!-- Generator: Adobe Illustrator 24.3.0, SVG Export Plug-In . SVG Version: 6.00 Build 0)  -->
<svg version="1.1" id="Layer_1" xmlns="http://www.w3.org/2000/svg" xmlns:xlink="http://www.w3.org/1999/xlink" x="0px" y="0px"
	 viewBox="0 0 900 400" style="enable-background:new 0 0 900 400;" xml:space="preserve">
<style type="text/css">
	.st0{fill:#5A483D;}
	.st1{enable-background:new    ;}
	.st2{fill:#6D7D5F;}
	.st3{fill:#1C383D;}
	.st4{fill:#9E6B3D;}
	.st5{fill:#9D9CA2;}
</style>
<g>
	<g>
		<path class="st0" d="M205.57,181.67c3.72,9.34-5.07,20.08-10.87,24.42c-9.83,7.38-21.64,7.5-29.31,3.58
			c-6.4-3.23-12.07-11.84-12.59-23.36c-1.2-29.8,23.29-55.77,38.91-62.15c7.53-3.12,14.4-3.83,18.99,0.01
			c3.16,2.61,6.47,6.62,7.67,10.11c1.36,4.03,1.01,7.98-1.01,12.4c-2.01,4.4-3.87,9.93-5.33,14.04c-0.41,1.13-1.37,2-3.09,0.9
			c-3.27-2.04-5.63-6.35-3.65-13.43c2.1-7.5,6.97-15.62,3.68-18.93c-4.02-4.14-25.15,7.7-37.37,28.92
			c-11.93,20.78-10.09,41.57-3.07,47.04c9.15,7.13,23.85-2.62,34.08-23.79C203.29,179.88,204.83,179.85,205.57,181.67z"/>
		<path class="st0" d="M258.76,180.82c-2.7,12.01-11.26,26.4-21.59,30.13c-5.01,1.79-12.07,1.39-17.86-5.82
			c-6.36-8.03-4.51-20.29,1.57-31.69c5.14-9.66,13.54-18.01,21.97-18.75c4.35-0.38,6.76,0.84,9.65,4.58
			c3.33,4.28,7.57,5.18,6.94,15.32c-0.11,1.13-0.09,2.11-0.2,3.25c0.84-0.01,1.68-0.32,2.8-0.33c0.99-0.03,0.99,0.69,0.46,1.4
			C261.56,180.06,260.17,180.66,258.76,180.82z M246.74,177.56c-3-2.19-6.48-7.04-6.72-12.24c-3.73,3.31-7.7,8.04-10.55,13.45
			c-5.68,10.81-7.52,23.79-3.78,26.8c4,3.16,12.49-1.96,19.09-15.03c2.02-3.98,3.63-7.95,4.68-11.35
			C248.46,178.8,247.6,178.25,246.74,177.56z M251.25,164.95c-0.8-4.48-3.6-3.59-4.2,0.51c-0.62,3.81,1.01,7.85,3.3,9.91
			C251.38,171,251.73,167.47,251.25,164.95z"/>
		<path class="st0" d="M285.18,199.11c0.04,1.54-0.06,3.11-0.18,4.79c5.26-3.64,10.74-10.78,14.24-18.16
			c0.8-1.71,2.21-1.88,2.95,0.08c0.75,2.1-0.03,5.21-1.22,8.46c-1.32,3.41-8.18,11.85-16.56,14.98
			c-1.95,14.24-7.8,29.99-14.36,38.57c-4.66,6.01-8.16,6.64-12.46,3.07c-3.58-2.88-7.9-8.27-6.62-20.25
			c3.27-31.44,34.47-85.98,49.57-109.65c1.08-1.71,2.93-1.62,3.51,0.06c1.78,4.75,1.49,10.81-4.34,21.19
			c-5.56,9.69-14.93,25.79-22.2,40.7C282.89,184.54,285.12,189.85,285.18,199.11z M259,245.39c3.18,4.01,13.31-15.6,17.54-34.98
			c-4.1-0.33-6.94-2.11-8.69-5.43C260.39,223.84,255.69,241.38,259,245.39z M278.36,196.16c0.03-5.21-1.48-9.53-2.44-9.09
			c-1.4,0.59-2.51,8.07-2.57,11.31c-0.04,4.49,1.27,7.42,3.96,7.93C277.94,202.93,278.3,199.4,278.36,196.16z"/>
		<path class="st0" d="M320.73,198.36c0.03,1.54-0.08,3.09-0.19,4.77c5.27-3.63,10.74-10.78,14.24-18.16
			c0.8-1.72,2.21-1.88,2.95,0.08c0.74,2.1-0.03,5.19-1.23,8.46c-1.32,3.4-8.18,11.84-16.56,14.98c-1.95,14.24-7.8,29.99-14.37,38.57
			c-4.66,5.99-8.16,6.64-12.46,3.07c-3.58-2.88-7.9-8.27-6.62-20.25c3.27-31.44,34.47-85.98,49.57-109.65
			c1.08-1.71,2.93-1.62,3.51,0.06c1.78,4.75,1.49,10.81-4.34,21.19c-5.57,9.67-14.93,25.79-22.2,40.69
			C318.45,183.79,320.67,189.1,320.73,198.36z M294.56,244.64c3.18,4.01,13.31-15.62,17.54-34.98c-4.09-0.33-6.94-2.1-8.69-5.45
			C295.92,223.09,291.24,240.63,294.56,244.64z M313.91,195.41c0.03-5.21-1.48-9.53-2.44-9.09c-1.4,0.59-2.51,8.07-2.57,11.31
			c-0.04,4.49,1.29,7.42,3.97,7.93C313.5,202.18,313.83,198.65,313.91,195.41z"/>
		<path class="st0" d="M351.6,205.45c11.67,0.32,21.7-11.15,27.56-20.57c0.69-1.15,1.79-1.17,2.39,0.08
			c0.59,1.12,0.24,5.07-2.21,8.78c-5.71,8.69-16.42,15.4-27.24,15.77c-17.86,0.66-24.41-16.78-15.67-35.12
			c8.76-18.33,22.94-25.95,30.05-22.02c3.55,2.02,6.13,4.1,8.44,7.14c2.61,3.31,1.67,11.91-4.1,19.22
			c-6.71,8.58-16.05,12.45-26.07,4.63C340.57,196.4,344.14,205.2,351.6,205.45z M362.58,172.87c4.38-5.99,7.32-13.38,5.32-14.88
			c-3-2.32-14.5,6.36-20.82,19.86c-0.41,0.85-0.8,1.71-1.07,2.42C352.98,184.46,358.62,178.3,362.58,172.87z"/>
		<path class="st0" d="M397.94,204.47c11.67,0.32,21.7-11.15,27.56-20.57c0.69-1.15,1.79-1.17,2.39,0.09
			c0.59,1.12,0.25,5.07-2.2,8.77c-5.71,8.69-16.41,15.4-27.24,15.77c-17.86,0.66-24.41-16.79-15.66-35.12s22.95-25.94,30.05-22.02
			c3.55,2.04,6.13,4.09,8.45,7.14c2.61,3.31,1.67,11.91-4.1,19.22c-6.71,8.58-16.05,12.45-26.07,4.63
			C386.9,195.42,390.47,204.22,397.94,204.47z M408.91,171.89c4.38-5.99,7.32-13.38,5.32-14.88c-2.99-2.32-14.5,6.36-20.82,19.86
			c-0.41,0.85-0.8,1.71-1.07,2.42C399.31,183.5,404.95,177.32,408.91,171.89z"/>
	</g>
	<g class="st1">
		<path class="st2" d="M324.38,245.33v-0.14c0-13.02,9.74-23.81,23.28-23.81c7.43,0,12.15,2.43,16.44,5.98
			c0.52,0.46,1.04,1.18,1.04,2.11c0,1.39-1.25,2.56-2.63,2.56c-0.73,0-1.31-0.32-1.71-0.59c-3.55-3.16-7.56-5.26-13.22-5.26
			c-10.18,0-17.82,8.29-17.82,18.88v0.14c0,10.65,7.69,19,17.82,19c5.71,0,9.74-1.97,13.68-5.6c0.39-0.39,0.98-0.73,1.65-0.73
			c1.31,0,2.49,1.18,2.49,2.49c0,0.79-0.39,1.45-0.85,1.83c-4.53,4.15-9.53,6.78-17.09,6.78
			C334.18,268.99,324.38,258.54,324.38,245.33z"/>
		<path class="st2" d="M368.98,245.33v-0.14c0-12.7,9.53-23.81,23.55-23.81c14.01,0,23.41,10.98,23.41,23.67v0.14
			c0,12.7-9.53,23.81-23.55,23.81S368.98,258.02,368.98,245.33z M410.54,245.33v-0.14c0-10.45-7.62-19-18.15-19
			s-18.01,8.41-18.01,18.88v0.14c0,10.45,7.62,19,18.15,19C403.04,264.2,410.54,255.79,410.54,245.33z"/>
		<path class="st2" d="M424.28,224.54c0-1.39,1.18-2.56,2.56-2.56h0.73c1.18,0,1.91,0.59,2.63,1.51l27.94,35.65v-34.72
			c0-1.39,1.12-2.56,2.56-2.56c1.39,0,2.49,1.18,2.49,2.56v41.56c0,1.39-0.99,2.43-2.37,2.43h-0.27c-1.12,0-1.91-0.66-2.7-1.58
			l-28.54-36.49V266c0,1.39-1.12,2.56-2.56,2.56c-1.39,0-2.49-1.18-2.49-2.56L424.28,224.54L424.28,224.54z"/>
		<path class="st2" d="M473.6,224.54c0-1.39,1.18-2.56,2.56-2.56h0.73c1.18,0,1.91,0.59,2.63,1.51l27.94,35.65v-34.72
			c0-1.39,1.12-2.56,2.56-2.56c1.39,0,2.49,1.18,2.49,2.56v41.56c0,1.39-0.99,2.43-2.37,2.43h-0.27c-1.12,0-1.91-0.66-2.7-1.58
			l-28.54-36.49V266c0,1.39-1.12,2.56-2.56,2.56c-1.39,0-2.49-1.18-2.49-2.56L473.6,224.54L473.6,224.54z"/>
		<path class="st2" d="M522.92,265.58V224.8c0-1.45,1.18-2.63,2.56-2.63h28.6c1.31,0,2.37,1.04,2.37,2.37
			c0,1.31-1.04,2.37-2.37,2.37h-25.96v15.72h23.01c1.31,0,2.37,1.12,2.37,2.37c0,1.31-1.04,2.37-2.37,2.37h-23.01v16.1h26.31
			c1.31,0,2.37,1.04,2.37,2.37c0,1.31-1.04,2.37-2.37,2.37h-28.94C524.12,268.21,522.92,267.01,522.92,265.58z"/>
		<path class="st2" d="M562.32,245.33v-0.14c0-13.02,9.74-23.81,23.28-23.81c7.43,0,12.15,2.43,16.44,5.98
			c0.52,0.46,1.04,1.18,1.04,2.11c0,1.39-1.25,2.56-2.63,2.56c-0.73,0-1.31-0.32-1.71-0.59c-3.55-3.16-7.56-5.26-13.22-5.26
			c-10.18,0-17.82,8.29-17.82,18.88v0.14c0,10.65,7.69,19,17.82,19c5.71,0,9.74-1.97,13.68-5.6c0.39-0.39,0.98-0.73,1.64-0.73
			c1.31,0,2.49,1.18,2.49,2.49c0,0.79-0.39,1.45-0.85,1.83c-4.53,4.15-9.53,6.78-17.09,6.78
			C572.13,268.99,562.32,258.54,562.32,245.33z"/>
		<path class="st2" d="M622.43,226.99h-13.35c-1.31,0-2.43-1.04-2.43-2.37c0-1.31,1.12-2.43,2.43-2.43h31.96
			c1.31,0,2.43,1.12,2.43,2.43s-1.12,2.37-2.43,2.37h-13.35v38.93c0,1.45-1.18,2.63-2.63,2.63c-1.45,0-2.63-1.18-2.63-2.63v-38.93
			H622.43z"/>
		<path class="st2" d="M650.71,224.47c0-1.45,1.18-2.63,2.56-2.63c1.45,0,2.63,1.18,2.63,2.63v41.43c0,1.45-1.18,2.63-2.63,2.63
			c-1.39,0-2.56-1.18-2.56-2.63V224.47z"/>
		<path class="st2" d="M664.72,245.33v-0.14c0-12.7,9.53-23.81,23.55-23.81c14.01,0,23.41,10.98,23.41,23.67v0.14
			c0,12.7-9.53,23.81-23.55,23.81C674.12,268.99,664.72,258.02,664.72,245.33z M706.28,245.33v-0.14c0-10.45-7.62-19-18.15-19
			c-10.53,0-18.01,8.41-18.01,18.88v0.14c0,10.45,7.62,19,18.15,19C698.8,264.2,706.28,255.79,706.28,245.33z"/>
		<path class="st2" d="M720.04,224.54c0-1.39,1.18-2.56,2.56-2.56h0.73c1.18,0,1.91,0.59,2.63,1.51l27.94,35.65v-34.72
			c0-1.39,1.12-2.56,2.56-2.56c1.39,0,2.49,1.18,2.49,2.56v41.56c0,1.39-0.99,2.43-2.37,2.43h-0.27c-1.12,0-1.91-0.66-2.7-1.58
			l-28.54-36.49V266c0,1.39-1.12,2.56-2.56,2.56c-1.39,0-2.49-1.18-2.49-2.56L720.04,224.54L720.04,224.54z"/>
	</g>
	<g id="coffee-cup-2_1_">
		<path class="st3" d="M482.34,196.48h-43.17c-2.07,0-3.77,1.41-3.77,3.16c0,1.74,1.69,3.16,3.77,3.16h43.17
			c2.07,0,3.77-1.41,3.77-3.16C486.1,197.89,484.42,196.48,482.34,196.48L482.34,196.48z"/>
		<path class="st4" d="M481.37,172.65c-1.01,0-1.97,0.22-2.86,0.56c0.15-0.92-0.06-1.86-0.65-2.6c-0.65-0.83-1.64-1.32-2.69-1.32
			h-32.25c-1.04,0-2.02,0.48-2.67,1.31c-0.65,0.81-0.88,1.91-0.6,2.91l4.17,16.38c0.39,1.5,1.73,2.55,3.28,2.55h23.75
			c1.53,0,2.89-1.03,3.27-2.52l1.31-4.96c1.4,1.74,3.51,2.9,5.92,2.9c4.19,0,7.6-3.41,7.6-7.6
			C488.95,176.06,485.56,172.65,481.37,172.65L481.37,172.65z M481.37,184.46c-2.32,0-4.21-1.9-4.21-4.21s1.9-4.21,4.21-4.21
			c2.32,0,4.21,1.9,4.21,4.21C485.58,182.58,483.68,184.46,481.37,184.46L481.37,184.46z"/>
		<path class="st5" d="M459.82,155.91c-4.7,6.43,2.1,10.86,2.1,10.86c-3.67-2.61-1.03-7.34,0.27-9.27c1.51-2.24,3.25-4.79,3.39-8.34
			c0.19-4.52-4.24-6.08-4.24-6.08c0.59,0.34,1.57,1.58,1.4,5.96C462.62,151.6,461.59,153.5,459.82,155.91L459.82,155.91z
			 M455.37,166.77c-4.39-3.13-1.23-8.82,0.32-11.12c1.82-2.7,3.91-5.75,4.07-10.02c0.22-5.43-5.09-7.31-5.09-7.31
			c0.71,0.42,1.88,1.91,1.68,7.15c-0.11,3.04-1.36,5.32-3.49,8.22C447.22,161.45,455.37,166.77,455.37,166.77L455.37,166.77z
			 M465.62,158.43c-3.61,4.94,1.59,8.34,1.59,8.34c-2.8-2-0.79-5.64,0.22-7.1c1.17-1.73,2.49-3.68,2.6-6.4
			c0.14-3.47-3.25-4.66-3.25-4.66c0.46,0.27,1.21,1.22,1.06,4.58C467.76,155.14,466.97,156.59,465.62,158.43L465.62,158.43z"/>
	</g>
</g>
</svg>
